<svg width="56" height="32" viewBox="0 0 56 32" fill="none"
	xmlns="http://www.w3.org/2000/svg">
	<g clip-path="url(#clip0_1_7802)">
		<path d="M35 -4L28 0L35 4M35 -4L42 0L35 4M35 -4V4" stroke="#FFE9E9" stroke-width="0.5"/>
		<path d="M42 0L35 4L42 8M42 0L49 4L42 8M42 0V8" stroke="#FFE9E9" stroke-width="0.5"/>
		<path d="M49 -4L42 0L49 4M49 -4L56 0L49 4M49 -4V4" stroke="#FFE9E9" stroke-width="0.5"/>
		<path d="M7 12L0 16L7 20M7 12L14 16L7 20M7 12V20" stroke="#FFE9E9" stroke-width="0.5"/>
		<path d="M35 12L28 16L35 20M35 12L42 16L35 20M35 12V20" stroke="#FFE9E9" stroke-width="0.5"/>
		<path d="M21 4L14 8L21 12M21 4L28 8L21 12M21 4V12" stroke="#FFE9E9" stroke-width="0.5"/>
		<path d="M14 16L7 20L14 24M14 16L21 20L14 24M14 16V24" stroke="#FFE9E9" stroke-width="0.5"/>
		<path d="M42 16L35 20L42 24M42 16L49 20L42 24M42 16V24" stroke="#FFE9E9" stroke-width="0.5"/>
		<path d="M28 8L21 12L28 16M28 8L35 12L28 16M28 8V16" stroke="#FFE9E9" stroke-width="0.5"/>
		<path d="M14 8L7 12L14 16M14 8L21 12L14 16M14 8V16" stroke="#FFE9E9" stroke-width="0.5"/>
		<path d="M42 8L35 12L42 16M42 8L49 12L42 16M42 8V16" stroke="#FFE9E9" stroke-width="0.5"/>
		<path d="M28 0L21 4L28 8M28 0L35 4L28 8M28 0V8" stroke="#FFE9E9" stroke-width="0.5"/>
		<path d="M21 12L14 16L21 20M21 12L28 16L21 20M21 12V20" stroke="#FFE9E9" stroke-width="0.5"/>
		<path d="M49 12L42 16L49 20M49 12L56 16L49 20M49 12V20" stroke="#FFE9E9" stroke-width="0.5"/>
		<path d="M35 4L28 8L35 12M35 4L42 8L35 12M35 4V12" stroke="#FFE9E9" stroke-width="0.5"/>
		<path d="M49 4L42 8L49 12M49 4L56 8L49 12M49 4V12" stroke="#FFE9E9" stroke-width="0.5"/>
		<path d="M49 20L42 24L49 28M49 20L56 24L49 28M49 20V28" stroke="#FFE9E9" stroke-width="0.5"/>
		<path d="M42 24L35 28L42 32M42 24L49 28L42 32M42 24V32" stroke="#FFE9E9" stroke-width="0.5"/>
		<path d="M14 24L7 28L14 32M14 24L21 28L14 32M14 24V32" stroke="#FFE9E9" stroke-width="0.5"/>
		<path d="M7 20L0 24L7 28M7 20L14 24L7 28M7 20V28" stroke="#FFE9E9" stroke-width="0.5"/>
		<path d="M7 4L0 8L7 12M7 4L14 8L7 12M7 4V12" stroke="#FFE9E9" stroke-width="0.5"/>
		<path d="M7 -4L0 0L7 4M7 -4L14 0L7 4M7 -4V4" stroke="#FFE9E9" stroke-width="0.5"/>
		<path d="M21 -4L14 0L21 4M21 -4L28 0L21 4M21 -4V4" stroke="#FFE9E9" stroke-width="0.5"/>
		<path d="M14 0L7 4L14 8M14 0L21 4L14 8M14 0V8" stroke="#FFE9E9" stroke-width="0.5"/>
		<path d="M28 16L21 20L28 24M28 16L35 20L28 24M28 16V24" stroke="#FFE9E9" stroke-width="0.5"/>
		<path d="M21 20L14 24L21 28M21 20L28 24L21 28M21 20V28" stroke="#FFE9E9" stroke-width="0.5"/>
		<path d="M28 24L21 28L28 32M28 24L35 28L28 32M28 24V32" stroke="#FFE9E9" stroke-width="0.5"/>
		<path d="M35 20L28 24L35 28M35 20L42 24L35 28M35 20V28" stroke="#FFE9E9" stroke-width="0.5"/>
		<path d="M35 28L28 32L35 36M35 28L42 32L35 36M35 28V36" stroke="#FFE9E9" stroke-width="0.5"/>
		<path d="M49 28L42 32L49 36M49 28L56 32L49 36M49 28V36" stroke="#FFE9E9" stroke-width="0.5"/>
		<path d="M21 28L14 32L21 36M21 28L28 32L21 36M21 28V36" stroke="#FFE9E9" stroke-width="0.5"/>
		<path d="M7 28L0 32L7 36M7 28L14 32L7 36M7 28V36" stroke="#FFE9E9" stroke-width="0.5"/>
	</g>
	<defs>
		<clipPath id="clip0_1_7802">
			<rect width="56" height="32" fill="white"/>
		</clipPath>
	</defs>
</svg>
