<svg xmlns="http://www.w3.org/2000/svg" width="24" height="24" fill="none"><g clip-path="url(#a)"><mask id="b" width="24" height="24" x="0" y="0" maskUnits="userSpaceOnUse" style="mask-type:alpha"><circle cx="12" cy="12" r="12" fill="#D9D9D9"/></mask><g mask="url(#b)"><path fill="url(#c)" d="M0 0h24v24H0z"/></g><path fill="url(#d)" d="M5.333 8.333h1a9.333 9.333 0 0 1 9.334 9.334v1h2a1 1 0 0 0 1-1c0-6.812-5.522-12.334-12.334-12.334a1 1 0 0 0-1 1v2Z"/><path fill="url(#e)" d="M16 17.667h2.667a1 1 0 0 1-1 1H16v-1Z"/><path fill="url(#f)" d="M6.333 5.333V8h-1V6.333a1 1 0 0 1 1-1Z"/><path fill="url(#g)" d="M5.333 8h1C11.673 8 16 12.328 16 17.667v1h-3v-1A6.667 6.667 0 0 0 6.333 11h-1V8Z"/><path fill="url(#h)" d="M13.333 17.667H16v1h-2.667v-1Z"/><path fill="url(#i)" d="M5.333 10.667V8h1v2.667h-1Z"/><path fill="url(#j)" d="M5.333 12.333a1 1 0 0 0 1 1 4.333 4.333 0 0 1 4.334 4.334 1 1 0 0 0 1 1h1.666v-1a7 7 0 0 0-7-7h-1v1.666Z"/><path fill="url(#k)" d="M10.667 17.667h2.666v1h-1.666a1 1 0 0 1-1-1Z"/><path fill="url(#l)" d="M6.333 13.333a1 1 0 0 1-1-1v-1.666h1v2.666Z"/></g><defs><radialGradient id="d" cx="0" cy="0" r="1" gradientTransform="rotate(-90 12 5.667) scale(12.3333)" gradientUnits="userSpaceOnUse"><stop offset=".77" stop-color="#FF4000"/><stop offset="1" stop-color="#8754C9"/></radialGradient><radialGradient id="g" cx="0" cy="0" r="1" gradientTransform="rotate(-90 12 5.667) scale(9.66667)" gradientUnits="userSpaceOnUse"><stop offset=".724" stop-color="#FFF700"/><stop offset="1" stop-color="#FF9901"/></radialGradient><radialGradient id="j" cx="0" cy="0" r="1" gradientTransform="rotate(-90 12 5.667) scale(7)" gradientUnits="userSpaceOnUse"><stop offset=".595" stop-color="#0AF"/><stop offset="1" stop-color="#01DA40"/></radialGradient><radialGradient id="k" cx="0" cy="0" r="1" gradientTransform="matrix(2.83333 0 0 7.55556 10.5 18.167)" gradientUnits="userSpaceOnUse"><stop stop-color="#0AF"/><stop offset="1" stop-color="#01DA40"/></radialGradient><radialGradient id="l" cx="0" cy="0" r="1" gradientTransform="matrix(0 -2.83333 53.7284 0 5.833 13.5)" gradientUnits="userSpaceOnUse"><stop stop-color="#0AF"/><stop offset="1" stop-color="#01DA40"/></radialGradient><linearGradient id="c" x1="12" x2="12" y1="0" y2="24" gradientUnits="userSpaceOnUse"><stop stop-color="#174299"/><stop offset="1" stop-color="#001E59"/></linearGradient><linearGradient id="e" x1="15.833" x2="18.667" y1="18.167" y2="18.167" gradientUnits="userSpaceOnUse"><stop stop-color="#FF4000"/><stop offset="1" stop-color="#8754C9"/></linearGradient><linearGradient id="f" x1="5.833" x2="5.833" y1="5.333" y2="8.167" gradientUnits="userSpaceOnUse"><stop stop-color="#8754C9"/><stop offset="1" stop-color="#FF4000"/></linearGradient><linearGradient id="h" x1="13.333" x2="16" y1="18.167" y2="18.167" gradientUnits="userSpaceOnUse"><stop stop-color="#FFF700"/><stop offset="1" stop-color="#FF9901"/></linearGradient><linearGradient id="i" x1="5.833" x2="5.833" y1="10.667" y2="8" gradientUnits="userSpaceOnUse"><stop stop-color="#FFF700"/><stop offset="1" stop-color="#FF9901"/></linearGradient><clipPath id="a"><path fill="#fff" d="M0 0h24v24H0z"/></clipPath></defs></svg>