<svg width="512" height="512" viewBox="0 0 512 512" fill="none" xmlns="http://www.w3.org/2000/svg">
<g clip-path="url(#clip0_2191_4290)">
<rect width="512" height="512" rx="104" fill="#335DE5"/>
<path d="M463.438 241.247C460.765 205.135 448.58 170.338 428.087 140.271C407.599 110.209 379.509 85.9182 346.579 69.796C313.653 53.678 277.032 46.2804 240.32 48.3363C203.605 50.3921 168.069 61.8255 137.212 81.5201C106.354 101.21 81.2394 128.48 64.3386 160.636L63.536 162.257C58.1971 173.126 54.5878 184.745 52.8411 196.697C47.8455 232.021 55.592 263.46 75.8275 287.667C97.9599 314.136 133.993 329.879 177.215 331.947C229.832 334.555 282.148 320.434 319.275 294.458L341.287 307.353C320.258 325.291 271.637 357.594 191.112 362.009C100.719 366.93 63.0425 338.001 62.6905 337.706L56.3517 345.403L48 355.273C49.6008 356.6 85.7285 385.335 170.576 385.335C177.52 385.335 184.816 385.335 192.412 384.746C289.873 379.391 343.476 337.575 362.231 319.629L380.642 330.637C368.261 346.658 353.025 360.333 335.67 370.982C274.504 409.849 196.708 414.867 142.242 412.162L141.096 434.831C150.242 435.273 159.035 435.471 167.58 435.471C321.048 435.471 383.132 366.719 400.539 342.062L414.925 350.487C401.135 373.603 382.393 393.567 359.931 408.939C333.034 427.345 301.735 438.538 269.114 441.415L271.114 464C307.739 460.786 342.888 448.236 373.089 427.581C403.29 406.926 427.508 378.881 443.349 346.207C459.185 313.529 466.116 277.358 463.438 241.247ZM374.81 244.739C364.626 244.739 356.368 236.613 356.368 226.586C356.368 216.56 364.621 208.433 374.81 208.433C384.99 208.433 393.247 216.56 393.247 226.586C393.247 236.613 384.994 244.739 374.81 244.739Z" fill="#ECECEC"/>
</g>
<defs>
<clipPath id="clip0_2191_4290">
<rect width="512" height="512" fill="white"/>
</clipPath>
</defs>
</svg>
