<svg width="24" height="24" viewBox="0 0 24 24" fill="none" xmlns="http://www.w3.org/2000/svg">
<g clip-path="url(#clip0_2262_4284)">
<rect width="24" height="24" rx="5" fill="#335DE5"/>
<path d="M21.7237 11.3084C21.5983 9.6157 21.0272 7.98457 20.0666 6.57521C19.1062 5.16604 17.7895 4.02742 16.2459 3.27169C14.7025 2.51616 12.9859 2.1694 11.265 2.26576C9.54398 2.36213 7.87825 2.89807 6.43181 3.82125C4.98537 4.74424 3.80809 6.02248 3.01587 7.52979L2.97825 7.60582C2.72799 8.1153 2.5588 8.65993 2.47692 9.22016C2.24276 10.876 2.60588 12.3497 3.55441 13.4844C4.59187 14.7251 6.28093 15.4631 8.30696 15.56C10.7734 15.6823 13.2257 15.0203 14.966 13.8027L15.9978 14.4072C15.0121 15.248 12.733 16.7622 8.95836 16.9692C4.72123 17.1998 2.95512 15.8438 2.93862 15.83L2.64149 16.1907L2.25 16.6534C2.32504 16.7156 4.01852 18.0626 7.99574 18.0626C8.32124 18.0626 8.66323 18.0626 9.01931 18.0349C13.5878 17.784 16.1004 15.8238 16.9796 14.9826L17.8426 15.4986C17.2622 16.2496 16.5481 16.8906 15.7345 17.3898C12.8674 19.2117 9.22069 19.4469 6.66759 19.3201L6.61387 20.3827C7.04257 20.4034 7.45478 20.4127 7.85532 20.4127C15.0491 20.4127 17.9593 17.19 18.7753 16.0342L19.4496 16.4291C18.8032 17.5126 17.9247 18.4485 16.8718 19.169C15.611 20.0318 14.1438 20.5565 12.6147 20.6914L12.7084 21.75C14.4253 21.5993 16.0729 21.0111 17.4886 20.0428C18.9042 19.0746 20.0394 17.7601 20.782 16.2285C21.5243 14.6967 21.8492 13.0012 21.7237 11.3084ZM17.5692 11.4721C17.0918 11.4721 16.7048 11.0912 16.7048 10.6212C16.7048 10.1512 17.0916 9.77032 17.5692 9.77032C18.0464 9.77032 18.4335 10.1512 18.4335 10.6212C18.4335 11.0912 18.0466 11.4721 17.5692 11.4721Z" fill="#ECECEC"/>
</g>
<defs>
<clipPath id="clip0_2262_4284">
<rect width="24" height="24" fill="white"/>
</clipPath>
</defs>
</svg>
